<svg width="28" height="17" viewBox="0 0 28 17" fill="none" xmlns="http://www.w3.org/2000/svg">
<path d="M27 8.98645C22.814 12.0151 19.6745 16.9567 13.6049 16.9567C9.09667 16.9567 9.62797 13.7071 9.62797 9.30526C9.62797 4.90344 9.11519 0.705416 13.6049 1.01625C20.5117 1.49444 23.6512 6.43599 27 8.98645Z" fill="#36C8F6"/>
<path d="M-4.94867e-05 8.98645C4.186 5.95779 7.32553 1.01625 13.3951 1.01625C17.9033 1.01625 17.372 4.26582 17.372 8.66764C17.372 13.0695 17.8848 17.2675 13.3951 16.9566C6.48832 16.4785 3.34879 11.5369 -4.94867e-05 8.98645Z" fill="#36C8F6"/>
<ellipse cx="13.3953" cy="8.98646" rx="5.02326" ry="3.8257" fill="#194FC6" fill-opacity="0.56"/>
<line x1="0.71115" y1="1.67929" x2="26.7111" y2="15.6793" stroke="#194FC6" stroke-width="3"/>
</svg>
